<svg id="Livello_4" data-name="Livello 4" xmlns="http://www.w3.org/2000/svg" viewBox="0 0 365.62 203.23"><defs><style>.cls-1{font-size:68.81px;stroke:#feeb15;stroke-miterlimit:10;stroke-width:2px;font-family:SimpleMelodyRegular, Simple Melody;}.cls-1,.cls-3{fill:#fcbf36;}.cls-2{fill:#feeb15;}</style></defs><title>soundRise-scritta</title><text class="cls-1" transform="translate(160.06 111.29) scale(0.91 1)">oundRise</text><path class="cls-2" d="M112.49,122C94.75,144.24,57.23,135.36,47,110.43c-10.59-25.74,9.8-52.53,36.6-53,4-.07,4-6.32,0-6.25C59.79,51.6,39.17,69.71,38,93.92c-1.18,23.29,16.81,43.56,39.66,46.5,14.32,1.85,30.06-2.42,39.3-14,2.49-3.11-1.91-7.56-4.42-4.42Z"/><path class="cls-2" d="M67,46.76a71.15,71.15,0,0,0-8.47-23.41c-2-3.49-7.4-.35-5.4,3.15A66.48,66.48,0,0,1,61,48.42c.68,4,6.7,2.28,6-1.66Z"/><path class="cls-2" d="M48.07,58.6a34.59,34.59,0,0,0-7.16-8,3.23,3.23,0,0,0-4.42,0c-1.09,1.1-1.32,3.36,0,4.42a29.33,29.33,0,0,1,6.18,6.69A3.19,3.19,0,0,0,47,62.87a3.16,3.16,0,0,0,1.12-4.27Z"/><path class="cls-2" d="M34.88,73.25a46.25,46.25,0,0,1-22.26-8C9.28,63,6.15,68.41,9.47,70.65A52.5,52.5,0,0,0,34.88,79.5c4,.34,4-5.91,0-6.25Z"/><path class="cls-2" d="M32.85,92.6H21.19c-4,0-4,6.25,0,6.25H32.85c4,0,4-6.25,0-6.25Z"/><path class="cls-2" d="M33.18,114.15a38,38,0,0,1-20.4,9.16c-4,.55-2.28,6.57,1.66,6A43.66,43.66,0,0,0,37.6,118.57c3-2.67-1.41-7.07-4.42-4.42Z"/><path class="cls-2" d="M42.28,142.62a19.08,19.08,0,0,1,5.89-8,3.15,3.15,0,0,0,0-4.42,3.19,3.19,0,0,0-4.42,0A25.21,25.21,0,0,0,36.25,141a3.14,3.14,0,0,0,2.18,3.84,3.2,3.2,0,0,0,3.85-2.18Z"/><path class="cls-2" d="M62.68,143.92A40.88,40.88,0,0,0,52,164.23c-.79,3.93,5.23,5.61,6,1.66a35,35,0,0,1,9-17.56c2.77-2.91-1.64-7.34-4.42-4.41Z"/><path class="cls-2" d="M80.14,149.37a48.79,48.79,0,0,1-1,13.74c-.87,3.92,5.15,5.59,6,1.66a55,55,0,0,0,1.26-15.4c-.24-4-6.5-4-6.25,0Z"/><path class="cls-3" d="M124.24,38.93q.42,42.51-2.48,85c-.49,7.14-1.05,14.32-2.78,21.26-.43,1.76-1.13,3.71-2.8,4.41-2,.84-4.39-.81-5.13-2.87s-.33-4.35.1-6.51A16.89,16.89,0,1,0,131,165.93c4.45-6,4.46-14.08,4.28-21.55L132.78,39.19Z"/><path class="cls-2" d="M122.37,38.93q.24,28.18-.91,56.34-.57,13.83-1.51,27.64c-.29,4.42-.6,8.83-1.19,13.22a67.86,67.86,0,0,1-1.18,6.79,19.62,19.62,0,0,1-1.15,3.9q-5.36-1.73-3.47-6.13a1.9,1.9,0,0,0-2.75-2.12c-12.4,5.67-15.35,22.19-5,31.38s26.3,3.52,30.44-9.11c2.73-8.31,1.49-17.82,1.29-26.39l-.77-31.75-1.53-63.51a1.9,1.9,0,0,0-1.87-1.87l-8.54-.26c-2.41-.07-2.41,3.68,0,3.75l8.54.26-1.88-1.88,2.3,95.26c.3,12.6,3.12,35.52-15.24,36.35a15.15,15.15,0,0,1-15-11.33c-2-7.43,2.44-14.59,9.15-17.66l-2.76-2.11c-.66,3.62-1.19,7.79,1.92,10.47a5.38,5.38,0,0,0,7.33,0c3.12-3,3.29-9.32,3.83-13.28.82-5.94,1.16-11.93,1.54-17.91q2.55-40,2.16-80C126.1,36.52,122.35,36.52,122.37,38.93Z"/><path class="cls-3" d="M138.77,58.72c3.7,1.44,9.07,3.71,13,3.46s8.08-2.72,8.9-6.61S159,48,156.2,45.16c-12.82-13.1-32.77-18-50.74-14.38-5.67,1.13-11.32,3.12-15.69,6.88S82.46,47.23,83.25,53c.59,4.28,3.15,8.08,6.34,11a56.43,56.43,0,0,0,10.78,7.13l35.91,20a32.22,32.22,0,0,1,7.57,5.2,10.93,10.93,0,0,1,3.46,8.23c-.38,4.78-4.78,8.16-9,10.38a58.8,58.8,0,0,1-31.9,6.54,54.85,54.85,0,0,1-30.14-12.16c-3.21-2.65-6.26-6-6.74-10.13C68.76,92.72,74.69,87.14,81,85.9s12.72.69,18.84,2.6c1.9-3.27,1.22-7.64-1.07-10.64a15.77,15.77,0,0,0-9.64-5.49,24,24,0,0,0-23.31,9.4A25.86,25.86,0,0,0,63.31,107a26.7,26.7,0,0,0,12.92,13.21c5.23,2.46,11.12,3.14,16.9,3.33,15.72.53,31.38-2.27,46.66-6,4.12-1,8.28-2.08,11.93-4.21s6.82-5.45,7.83-9.56c1.21-4.91-.79-10.07-3.62-14.25-5.92-8.7-15.27-14.42-24.72-19S111.82,62,103.3,55.83a19.16,19.16,0,0,1-5.56-5.57,8.21,8.21,0,0,1-.63-7.59C99,38.94,103.8,38,108,37.78a130.09,130.09,0,0,1,15.92,0c4,.24,8.09.69,11.75,2.35s6.89,4.71,7.84,8.61S142.11,56.42,138.77,58.72Z"/><path class="cls-2" d="M138.27,60.53c7.15,2.8,17.79,6.68,23-1.64,5-7.93-4.16-16.1-9.91-20.33C135.8,27.07,111.65,23.69,94,32.6,86,36.66,79.4,45.46,81.71,54.85,84.2,65,94.53,70,102.85,74.59c11.88,6.6,24.35,12.66,35.81,20,3.33,2.12,6.53,4.83,6.57,9.07,0,4-2.79,6.49-6,8.49a53.1,53.1,0,0,1-18.66,6.74,54,54,0,0,1-40.78-9.26c-7-5.08-12.69-14.07-3-20,6.86-4.25,15.48-1.44,22.54.74a1.86,1.86,0,0,0,2.11-.86c4-8.45-2.15-16.32-10.44-18.56-9.2-2.47-19.53,1.19-25.61,8.4-6.49,7.7-7.82,19-3.87,28.19,4,9.34,12.63,15.26,22.48,17,12.35,2.22,25.53.74,37.81-1.3,6.73-1.12,13.44-2.54,20-4.24,4.79-1.23,9.65-2.75,13.56-5.91,8.64-7,7.3-17.49,1.23-25.76-6.51-8.88-16.32-14.52-26-19.2-6.85-3.29-13.89-6.23-20.46-10.08-3.16-1.85-6.66-3.85-9.14-6.58-4.23-4.66-2.49-10.12,3.65-11.38,7.15-1.47,15.49-1,22.69-.1,8.55,1,21.07,9,10.12,17.45-1.91,1.47.77,4.11,2.65,2.65,6.77-5.25,7-13.63.32-19.14-7.9-6.5-20.93-5.56-30.46-5.11-7,.33-16.63,2.29-15.22,11.48s14,14.51,21.23,18.07c9.85,4.83,20.28,8.8,29.05,15.55,9.52,7.33,19.94,22.3,5.77,30.8-5,3-11.35,4-17,5.32-6.6,1.47-13.25,2.75-20,3.59-11.91,1.48-26.94,3.12-37.94-2.71-12-6.33-16.66-22.3-9.34-33.9A22.28,22.28,0,0,1,83.25,73.94c7.2-.61,19.35,4.19,14.94,13.61l2.11-.86c-9.1-2.82-20.15-5.62-28,1.59-7.1,6.48-5.06,15.24,1.46,21.23,16.19,14.85,41,17.49,60.79,9.15,7.59-3.2,17.77-9.37,13.77-19.15-1.68-4.12-5.34-6.8-9-9-5.72-3.36-11.6-6.47-17.4-9.69l-18-10c-5.59-3.1-11.78-6.05-15.71-11.28-4.54-6.06-3.82-13.39,1.23-18.94,4.42-4.86,11-7,17.31-8.2a56.38,56.38,0,0,1,37.73,6c4.88,2.77,14.88,9,14.54,15.63-.53,10.3-14.59,4.79-19.72,2.79C137,56,136,59.66,138.27,60.53Z"/></svg>