<?xml version="1.0" standalone="no"?>
<svg viewBox="0 0 200 200" xmlns="http://www.w3.org/2000/svg">
  <path fill="#F2F4F8" d="M40.1,-67.4C51.2,-62.9,59.1,-50.8,64.7,-38.3C70.4,-25.8,73.7,-12.9,75,0.8C76.3,14.4,75.6,28.8,69.6,40.8C63.7,52.8,52.6,62.4,40.2,67.8C27.7,73.2,13.8,74.4,1.6,71.6C-10.6,68.8,-21.2,61.9,-33,56.1C-44.7,50.3,-57.6,45.5,-66.2,36.3C-74.8,27.1,-79.2,13.6,-78.9,0.1C-78.7,-13.3,-73.9,-26.6,-67.5,-39.7C-61.2,-52.8,-53.3,-65.8,-41.8,-70.1C-30.3,-74.4,-15.2,-70.1,-0.4,-69.5C14.4,-68.8,28.9,-72,40.1,-67.4Z" transform="translate(100 100)" />
</svg>
