<svg xmlns="http://www.w3.org/2000/svg" viewBox="0 0 221.96 204.34"><defs><style>.cls-1{fill:#feeb15;}.cls-2{fill:#fcbf36;}</style></defs><title>soundRise-logo</title><g id="Livello_2" data-name="Livello 2"><path class="cls-1" d="M132,127.9c-17.74,22.23-55.26,13.35-65.51-11.57-10.58-25.74,9.8-52.53,36.6-53,4-.07,4-6.32,0-6.25-23.79.4-44.4,18.5-45.63,42.72-1.18,23.28,16.81,43.55,39.66,46.5,14.33,1.85,30.06-2.43,39.3-14,2.49-3.12-1.91-7.57-4.42-4.42Z"/><path class="cls-1" d="M86.52,52.65a71.23,71.23,0,0,0-8.47-23.41c-2-3.49-7.4-.35-5.39,3.16A66.39,66.39,0,0,1,80.5,54.32c.68,4,6.7,2.27,6-1.67Z"/><path class="cls-1" d="M67.6,64.49a34.32,34.32,0,0,0-7.16-7.95,3.21,3.21,0,0,0-4.42,0c-1.09,1.09-1.32,3.35,0,4.42a29.12,29.12,0,0,1,6.18,6.69,3.21,3.21,0,0,0,4.28,1.12,3.16,3.16,0,0,0,1.12-4.28Z"/><path class="cls-1" d="M54.41,79.14a46.15,46.15,0,0,1-22.26-8c-3.34-2.26-6.47,3.15-3.15,5.4a52.53,52.53,0,0,0,25.41,8.84c4,.34,4-5.91,0-6.25Z"/><path class="cls-1" d="M52.38,98.5H40.72c-4,0-4,6.25,0,6.25H52.38c4,0,4-6.25,0-6.25Z"/><path class="cls-1" d="M52.71,120a38,38,0,0,1-20.4,9.17c-4,.54-2.28,6.56,1.66,6a43.59,43.59,0,0,0,23.16-10.77c3-2.66-1.41-7.07-4.42-4.42Z"/><path class="cls-1" d="M61.81,148.51a19.08,19.08,0,0,1,5.89-8,3.14,3.14,0,0,0,0-4.41,3.19,3.19,0,0,0-4.42,0,25.21,25.21,0,0,0-7.5,10.72,3.13,3.13,0,0,0,6,1.66Z"/><path class="cls-1" d="M82.21,149.81a40.87,40.87,0,0,0-10.64,20.32c-.79,3.92,5.24,5.61,6,1.66a34.78,34.78,0,0,1,9-17.56c2.77-2.91-1.64-7.34-4.42-4.42Z"/><path class="cls-1" d="M99.67,155.26a48.39,48.39,0,0,1-1,13.74c-.87,3.92,5.15,5.6,6,1.67a55,55,0,0,0,1.26-15.41c-.24-4-6.49-4-6.25,0Z"/><path class="cls-2" d="M143.77,44.83q.42,42.51-2.48,85c-.48,7.15-1,14.32-2.78,21.27-.43,1.75-1.13,3.71-2.8,4.4-2,.85-4.39-.8-5.13-2.87s-.32-4.35.1-6.5a16.89,16.89,0,1,0,19.88,25.73c4.46-6,4.46-14.08,4.28-21.55L152.31,45.09Z"/><path class="cls-1" d="M141.9,44.83q.24,28.17-.91,56.34-.57,13.83-1.51,27.64c-.29,4.41-.6,8.83-1.19,13.21a64.85,64.85,0,0,1-1.18,6.8,18.89,18.89,0,0,1-1.15,3.89q-5.36-1.72-3.47-6.12a1.9,1.9,0,0,0-2.75-2.12c-12.4,5.67-15.35,22.18-5,31.38s26.29,3.52,30.44-9.12c2.72-8.3,1.49-17.82,1.28-26.38l-.76-31.76-1.53-63.5a1.92,1.92,0,0,0-1.88-1.88L143.77,43c-2.41-.07-2.41,3.68,0,3.75l8.54.26-1.87-1.87,2.29,95.26c.3,12.59,3.12,35.52-15.24,36.34a15.14,15.14,0,0,1-15-11.32c-2-7.44,2.44-14.6,9.15-17.66l-2.75-2.12c-.67,3.62-1.19,7.79,1.92,10.47a5.37,5.37,0,0,0,7.32,0c3.12-3,3.29-9.32,3.83-13.28.82-5.93,1.16-11.93,1.54-17.91q2.55-40,2.16-80C145.63,42.42,141.88,42.41,141.9,44.83Z"/><path class="cls-2" d="M158.3,64.62c3.7,1.43,9.07,3.71,13,3.46s8.08-2.73,8.9-6.61-1.74-7.6-4.5-10.42C162.91,38,143,33.07,125,36.67c-5.66,1.14-11.31,3.12-15.69,6.89s-7.31,9.56-6.52,15.28c.59,4.28,3.15,8.09,6.35,11A55.35,55.35,0,0,0,119.91,77l35.9,20a32.22,32.22,0,0,1,7.57,5.2,10.92,10.92,0,0,1,3.46,8.24c-.38,4.78-4.78,8.16-9,10.38a58.89,58.89,0,0,1-31.9,6.53A54.81,54.81,0,0,1,95.77,115.1c-3.2-2.64-6.26-6-6.74-10.13C88.29,98.61,94.22,93,100.5,91.79s12.72.69,18.84,2.6c1.9-3.26,1.22-7.63-1.07-10.64a15.68,15.68,0,0,0-9.64-5.48,23.94,23.94,0,0,0-23.3,9.39,25.87,25.87,0,0,0-2.49,25.2,26.74,26.74,0,0,0,12.92,13.21c5.23,2.46,11.12,3.14,16.9,3.34,15.73.53,31.38-2.28,46.67-6,4.11-1,8.27-2.09,11.93-4.22s6.81-5.45,7.83-9.56c1.2-4.9-.79-10.07-3.63-14.24-5.92-8.7-15.27-14.42-24.72-19s-19.38-8.48-27.91-14.65a19.29,19.29,0,0,1-5.56-5.57,8.18,8.18,0,0,1-.63-7.58c1.85-3.74,6.69-4.64,10.85-4.9a132.12,132.12,0,0,1,15.92,0c4,.24,8.09.7,11.75,2.35s6.89,4.71,7.84,8.62S161.64,62.31,158.3,64.62Z"/><path class="cls-1" d="M157.8,66.43c7.15,2.79,17.79,6.67,23.06-1.65,5-7.93-4.16-16.1-9.91-20.33-15.62-11.49-39.76-14.87-57.38-6-8,4.07-14.64,12.86-12.33,22.26,2.5,10.13,12.82,15.11,21.14,19.73,11.88,6.6,24.35,12.67,35.82,20,3.32,2.13,6.52,4.84,6.56,9.08,0,4-2.78,6.48-6,8.48a52.9,52.9,0,0,1-18.66,6.74,54,54,0,0,1-40.78-9.26c-7-5.08-12.68-14.07-3-20,6.87-4.25,15.48-1.44,22.54.75a1.91,1.91,0,0,0,2.12-.86c4-8.45-2.16-16.33-10.45-18.56C101.31,74.3,91,78,84.9,85.17c-6.49,7.7-7.81,19-3.87,28.19,4,9.34,12.63,15.27,22.48,17,12.35,2.22,25.54.73,37.81-1.31,6.73-1.12,13.44-2.54,20.05-4.24,4.79-1.23,9.65-2.75,13.56-5.9,8.65-7,7.3-17.5,1.23-25.77-6.5-8.88-16.31-14.52-26-19.2-6.85-3.29-13.89-6.22-20.46-10.07-3.16-1.86-6.66-3.85-9.13-6.58-4.23-4.66-2.5-10.12,3.64-11.39,7.15-1.46,15.49-1,22.69-.1,8.55,1,21.07,9,10.12,17.45-1.9,1.48.77,4.11,2.65,2.65,6.77-5.24,7-13.63.32-19.13-7.9-6.5-20.93-5.57-30.46-5.12-7,.33-16.62,2.3-15.22,11.49s14,14.5,21.23,18.06c9.85,4.83,20.28,8.8,29,15.55,9.53,7.33,19.94,22.3,5.77,30.8-5,3-11.35,4-17,5.32-6.6,1.48-13.25,2.76-20,3.59-11.91,1.48-26.93,3.12-37.94-2.7-12-6.34-16.66-22.31-9.34-33.9a22.29,22.29,0,0,1,16.72-10.07c7.19-.61,19.34,4.2,14.93,13.61l2.12-.86c-9.11-2.82-20.16-5.62-28,1.59-7.1,6.48-5.06,15.25,1.47,21.23,16.18,14.86,40.94,17.49,60.78,9.15,7.59-3.19,17.78-9.36,13.78-19.15-1.69-4.11-5.34-6.79-9-9-5.72-3.36-11.6-6.47-17.4-9.69l-18-10c-5.59-3.11-11.78-6.06-15.71-11.29-4.55-6.05-3.83-13.39,1.22-18.94,4.42-4.86,11-7,17.31-8.2a56.43,56.43,0,0,1,37.73,6c4.88,2.77,14.88,9,14.54,15.64-.52,10.29-14.59,4.78-19.71,2.78C156.55,61.93,155.57,65.55,157.8,66.43Z"/></g></svg>