<svg id="Livello_4" data-name="Livello 4" xmlns="http://www.w3.org/2000/svg" viewBox="0 0 365.62 203.23"><defs><style>.cls-1,.cls-3{fill:#fcbf36;}.cls-1{stroke:#feeb15;stroke-miterlimit:10;stroke-width:2px;}.cls-2{fill:#feeb15;}</style></defs><title>soundRise-scritta</title><path class="cls-1" d="M179.81,86.32a15.31,15.31,0,0,1,3.06,5.81,23,23,0,0,1,1,6.75,29.69,29.69,0,0,1-.84,6.7,29.11,29.11,0,0,1-1.38,4.58,30.34,30.34,0,0,1-2.18,4.44,11.37,11.37,0,0,1-3.22,3.54,6.87,6.87,0,0,1-4,1.35,7.82,7.82,0,0,1-4.94-1.83,13.52,13.52,0,0,1-3.69-4.51,28.22,28.22,0,0,1-2.62-10.45,39.64,39.64,0,0,1,3.31-20.1c.25-.59.87-.76,1.87-.48a8.68,8.68,0,0,1,4.5-.69A13,13,0,0,1,179.81,86.32ZM177,102.42a27.21,27.21,0,0,0,.87-7.09,13.77,13.77,0,0,0-1.31-6.54,2.81,2.81,0,0,0-.5-.75,2.11,2.11,0,0,0-.5-.35,5,5,0,0,0-1.81-.75,6.33,6.33,0,0,0-2.63-.14,3.73,3.73,0,0,0-1.06.27c0,.19-.08.35-.12.49A36.46,36.46,0,0,0,167.06,104a32.7,32.7,0,0,0,1.06,7.23,16.5,16.5,0,0,0,.63,1.72c.08.18.19.39.31.62.38,0,.61-.07.69-.07,1.41-.41,2.91-1.93,4.5-4.54A25.59,25.59,0,0,0,177,102.42Z"/><path class="cls-1" d="M204.68,80.47a6.29,6.29,0,0,1,1.88,1.75,3.73,3.73,0,0,1,.68,2.38q-.62,13.49-.31,32.41.06,2.26-2.19,1.65a6.08,6.08,0,0,1-3.5-2.62,2.64,2.64,0,0,1-.5-1.44q-.12-2.26-.18-4.68a19.9,19.9,0,0,1-1.88,3.72,5.23,5.23,0,0,1-2.65,2,4.49,4.49,0,0,1-3.22-.18c-2.09-.82-3.81-2.66-5.19-5.5a30.84,30.84,0,0,1-2.81-13.49A35,35,0,0,1,187,83c.45-1.14,1.41-1.3,2.87-.48a4.34,4.34,0,0,1,2.25,2.89,2.42,2.42,0,0,1,0,.76,46.19,46.19,0,0,0-1.5,14.79,37.45,37.45,0,0,0,1.19,6.61l.75,2.07.06-.07a6.7,6.7,0,0,0,.63-.66,5,5,0,0,0,.56-.89c.16-.35.31-.64.44-.9s.27-.58.43-1,.29-.74.38-1,.19-.57.34-1a5.39,5.39,0,0,1,.34-.89q.94-2.69,2.07-6.82,2-7.64,3.43-15.55a1.29,1.29,0,0,1,.57-.89,1.4,1.4,0,0,1,1-.21,6,6,0,0,1,1,.24A3.56,3.56,0,0,1,204.68,80.47Z"/><path class="cls-1" d="M230.55,100q.06,3.38-.31,14.18c0,.68-.41,1-1.22,1a3.07,3.07,0,0,1-1.78-.41,6.36,6.36,0,0,1-2-1.55,3.15,3.15,0,0,1-1-2.1c0-.69.12-2.86.22-6.5s.13-6.44.09-8.37a43.12,43.12,0,0,0-.5-6.46c-.58.46-.91.73-1,.82q-2.94,3.3-5.12,11.43a64.49,64.49,0,0,0-2,11.69c.08,2.07.19,4,.31,5.92a1.48,1.48,0,0,1-.84,1.62,2.12,2.12,0,0,1-1.85-.1,6.29,6.29,0,0,1-2.21-1.59,4,4,0,0,1-1.16-2.34A255,255,0,0,1,209.81,81c0-.6.4-.9,1.09-.9a2.7,2.7,0,0,1,1.53.35,4.93,4.93,0,0,1,1.12.76,6.17,6.17,0,0,1,1,1.16,2.37,2.37,0,0,1,.46,1.31q.13,2.82.19,7a20.24,20.24,0,0,1,2.19-3.78c1.46-2,2.91-3,4.37-3.24a4.15,4.15,0,0,1,2.25.21,6.52,6.52,0,0,1,2,1.17,10.83,10.83,0,0,1,1.66,1.72,11.35,11.35,0,0,1,1.53,2.79,14.68,14.68,0,0,1,.84,3.64c.17,1.4.28,2.48.32,3.24S230.51,98.41,230.55,100Zm-6.93-12c-.05,0,0,.11.06.2C223.59,88.11,223.57,88,223.62,88Z"/><path class="cls-1" d="M260.73,94q0,4.33.38,26.83c0,1.52-.71,2-2.25,1.59a5.87,5.87,0,0,1-3.44-2.62,3.61,3.61,0,0,1-.56-1.51q-.26-6-.31-13.15c-.54,1.52-1.13,3-1.75,4.48a26.94,26.94,0,0,1-6.31,9.56,7.52,7.52,0,0,1-5.38,2.27,8.64,8.64,0,0,1-5.75-3q-3.93-4-3.75-12.11a33,33,0,0,1,2.6-11.76,22.59,22.59,0,0,1,6.59-9.16,8.6,8.6,0,0,1,5.72-2,9,9,0,0,1,5.65,2.31,2.9,2.9,0,0,1,.57.48Q254,78.41,255,64.09c.05-.69.47-1,1.29-1.07a2.62,2.62,0,0,1,1.78.45,7.08,7.08,0,0,1,2,1.55,2.84,2.84,0,0,1,.93,2.1c0,1,0,4.91-.12,11.56S260.73,90.42,260.73,94Zm-14,12.73a72.84,72.84,0,0,0,4.93-14.87,10.88,10.88,0,0,0-.93-2.13,4.77,4.77,0,0,0-.5-.69v.07l-.19-.21a3.86,3.86,0,0,0-1.44,0q-3.63.48-7.31,6.68a29.93,29.93,0,0,0-3.53,9.12,21.61,21.61,0,0,0-.09,9.46,17,17,0,0,0,.62,1.72h.06a4.92,4.92,0,0,0,3.13-1.52A23.54,23.54,0,0,0,246.74,106.69Z"/><path class="cls-1" d="M265.86,82.26a10.17,10.17,0,0,1-4-5.65,12.27,12.27,0,0,1,.31-6,24.48,24.48,0,0,1,5-9.57,25.9,25.9,0,0,1,8-6.5,14.34,14.34,0,0,1,9.12-1.62,16.07,16.07,0,0,1,9.41,5.23,17,17,0,0,1,4.65,10.19A23.33,23.33,0,0,1,297,78.85a35.45,35.45,0,0,1-5.34,9.81,28.27,28.27,0,0,1-11.82,9,125.49,125.49,0,0,0,13.56,14.52,7.9,7.9,0,0,1,1.66,2.1,1.91,1.91,0,0,1,0,2.17,1.32,1.32,0,0,1-.69.48,2.1,2.1,0,0,1-.9.07,3.61,3.61,0,0,1-.94-.28,5.32,5.32,0,0,1-.88-.48,6.27,6.27,0,0,1-.71-.55,119.52,119.52,0,0,1-12.38-13q.38,8.67,1,17.2a1.41,1.41,0,0,1-.87,1.58,2.26,2.26,0,0,1-1.88-.14,5.61,5.61,0,0,1-2.25-1.55,3.69,3.69,0,0,1-1.12-2.37q-.63-9.49-.88-18.92a6.36,6.36,0,0,1-2.47-3,1.59,1.59,0,0,1,1.1-2.34c.37-.09.79-.21,1.25-.35-.05-2.06-.09-3.92-.13-5.57q-.06-7.36.13-15.28c0-.5,0-1.49,0-3s0-2.61,0-3.44l-.06.07-.07.07a23.56,23.56,0,0,0-4,6.68,20.32,20.32,0,0,0-1.07,4.06c0,.09,0,.73.07,1.92a.57.57,0,0,0,.06.21,4.78,4.78,0,0,1,1.34,1.62,2,2,0,0,1,.16,1.82,1,1,0,0,1-.78.72,2.66,2.66,0,0,1-1.19-.06A4.26,4.26,0,0,1,265.86,82.26Zm1.59-3.48-.09-.1.12.21A.18.18,0,0,0,267.45,78.78Zm18.09-20.4a12.74,12.74,0,0,0-7.5,2.27q.07,2.68,0,7.64t-.09,6.6q0,7.52.12,15a1.52,1.52,0,0,0,0,.27,2.42,2.42,0,0,1,0,.28A26.52,26.52,0,0,0,286,83.56a32.21,32.21,0,0,0,4.44-7.46,24.7,24.7,0,0,0,2-8.29,10,10,0,0,0-1.81-6.89,6.27,6.27,0,0,0-2.19-1.85A7.72,7.72,0,0,0,285.54,58.38Z"/><path class="cls-1" d="M302.66,79a5.5,5.5,0,0,1-1.9-1.37,4,4,0,0,1-1.09-2.14,28.22,28.22,0,0,1-.32-4.4c0-.87.32-1.39.94-1.55a2.27,2.27,0,0,1,1.87.38,5.48,5.48,0,0,1,2,1.65,3.21,3.21,0,0,1,.71,2.34,16.79,16.79,0,0,0,.19,3.72,1.16,1.16,0,0,1-.75,1.41A2.29,2.29,0,0,1,302.66,79Zm3.25,39.3c0,1.51-.68,2-2.18,1.58a5.73,5.73,0,0,1-3.44-2.69,2.73,2.73,0,0,1-.56-1.37q-.32-6.89-.31-16.59-.07-4.87,0-8.39c0-1,.05-1.87,0-2.72s0-1.77.06-2.75.16-1.89.28-2.72a1,1,0,0,1,1.16-1,2.64,2.64,0,0,1,1.59.41,5.6,5.6,0,0,1,1.81,1.41,3.62,3.62,0,0,1,.94,2c.08.83.13,1.7.16,2.62s0,2,0,3.16,0,2.07,0,2.62l.07,8Q305.54,104.63,305.91,118.32Z"/><path class="cls-1" d="M320.85,100.56q5,4.34,5.31,9.29a6.63,6.63,0,0,1-1.62,5.37,9.69,9.69,0,0,1-4.44,2.41q-4.56,1.23-8.62-2.27a11.18,11.18,0,0,1-3.07-4.3,11.66,11.66,0,0,1-.87-5.34,11.36,11.36,0,0,1,3.94-7.57c-3-3.25-4.38-6.63-4.13-10.11a8.86,8.86,0,0,1,1.78-4.79A8,8,0,0,1,313,80.4a8.37,8.37,0,0,1,5.43.17,12.79,12.79,0,0,1,4.88,3.2A11.65,11.65,0,0,1,326,88.49a9.8,9.8,0,0,1-.06,5.47,1.48,1.48,0,0,1-1.81.86,4.53,4.53,0,0,1-2.25-1.59,3.23,3.23,0,0,1-.94-2.37,7.08,7.08,0,0,0-.62-4.4,2.39,2.39,0,0,0-.25-.21.84.84,0,0,0-.22-.14,2.67,2.67,0,0,1-.41-.21,4.24,4.24,0,0,0-1.81,0,5.27,5.27,0,0,0-3.47,2.93,5.93,5.93,0,0,0,.66,6.78,18.44,18.44,0,0,1,2.43-1.24q1.57-.83,3.88,1.38,2.13,2.06,1.56,3.5a1.44,1.44,0,0,1-.69.69C321.6,100.13,321.22,100.33,320.85,100.56ZM320,108a4.47,4.47,0,0,0-.94-3.37,8.81,8.81,0,0,0-1.88-1.65,10.71,10.71,0,0,0-2.49,3,7.49,7.49,0,0,0-1,2.68c0,.19,0,.46-.07.83v.14a7.27,7.27,0,0,0,.07,1.1,1.22,1.22,0,0,0,.06.27,1.27,1.27,0,0,1,.06.28c0,.09.13.32.25.69l.38.06h.62a4.51,4.51,0,0,0,1.56-.41Q319.72,110.4,320,108Zm-5.94,3.93a.22.22,0,0,1,.13.06A.22.22,0,0,0,314.1,111.92Z"/><path class="cls-1" d="M351.72,99.67c.41-1.15,1.31-1.26,2.69-.35a4.14,4.14,0,0,1,2,2.82v.42a30,30,0,0,1-4.69,12q-4.32,6.6-8.69,8.19a9.69,9.69,0,0,1-6,.28,11.47,11.47,0,0,1-5.18-3.31q-3.94-4-4.5-10.87a36.5,36.5,0,0,1,.87-11.63,35.52,35.52,0,0,1,4.38-10.6q4-6.47,8.56-5.92a6.85,6.85,0,0,1,3.78,1.66,11.1,11.1,0,0,1,2.75,3.47A12.5,12.5,0,0,1,349,90.1a13.45,13.45,0,0,1-2.81,10.05,13.78,13.78,0,0,1-8.5,5.43,3,3,0,0,1-2-.58,7.12,7.12,0,0,1-2-1.82,29.16,29.16,0,0,0,0,10.46,7.76,7.76,0,0,0,1.12,3.16l.19.21.31.34a2.67,2.67,0,0,0,.94.28c2.17.23,4.48-.9,6.94-3.37Q348,109.43,351.72,99.67Zm-16.06-3.51c-.42,1.1-.81,2.27-1.19,3.51A12.38,12.38,0,0,0,339.1,97a12.13,12.13,0,0,0,3.21-4.65,9.27,9.27,0,0,0,.47-5.57v-.14a6.93,6.93,0,0,0-2.81,2.2A28,28,0,0,0,335.66,96.16Zm6.75-10.39a.57.57,0,0,1-.06-.21A.57.57,0,0,0,342.41,85.77Zm1.19.69s-.05,0-.25,0C343.47,86.5,343.55,86.5,343.6,86.46Z"/><path class="cls-2" d="M112.49,124C94.75,146.24,57.23,137.36,47,112.43c-10.59-25.74,9.8-52.53,36.6-53,4-.07,4-6.32,0-6.25C59.79,53.6,39.17,71.71,38,95.92c-1.18,23.29,16.81,43.56,39.66,46.5,14.32,1.85,30.06-2.42,39.3-14,2.49-3.11-1.91-7.56-4.42-4.42Z"/><path class="cls-2" d="M67,48.76a71.15,71.15,0,0,0-8.47-23.41c-2-3.49-7.4-.35-5.4,3.15A66.48,66.48,0,0,1,61,50.42c.68,4,6.7,2.28,6-1.66Z"/><path class="cls-2" d="M48.07,60.6a34.59,34.59,0,0,0-7.16-8,3.23,3.23,0,0,0-4.42,0c-1.09,1.1-1.32,3.36,0,4.42a29.33,29.33,0,0,1,6.18,6.69A3.19,3.19,0,0,0,47,64.87a3.16,3.16,0,0,0,1.12-4.27Z"/><path class="cls-2" d="M34.88,75.25a46.25,46.25,0,0,1-22.26-8C9.28,65,6.15,70.41,9.47,72.65A52.5,52.5,0,0,0,34.88,81.5c4,.34,4-5.91,0-6.25Z"/><path class="cls-2" d="M32.85,94.6H21.19c-4,0-4,6.25,0,6.25H32.85c4,0,4-6.25,0-6.25Z"/><path class="cls-2" d="M33.18,116.15a38,38,0,0,1-20.4,9.16c-4,.55-2.28,6.57,1.66,6A43.66,43.66,0,0,0,37.6,120.57c3-2.67-1.41-7.07-4.42-4.42Z"/><path class="cls-2" d="M42.28,144.62a19.08,19.08,0,0,1,5.89-8,3.15,3.15,0,0,0,0-4.42,3.19,3.19,0,0,0-4.42,0A25.21,25.21,0,0,0,36.25,143a3.14,3.14,0,0,0,2.18,3.84,3.2,3.2,0,0,0,3.85-2.18Z"/><path class="cls-2" d="M62.68,145.92A40.88,40.88,0,0,0,52,166.23c-.79,3.93,5.23,5.61,6,1.66a35,35,0,0,1,9-17.56c2.77-2.91-1.64-7.34-4.42-4.41Z"/><path class="cls-2" d="M80.14,151.37a48.79,48.79,0,0,1-1,13.74c-.87,3.92,5.15,5.59,6,1.66a55,55,0,0,0,1.26-15.4c-.24-4-6.5-4-6.25,0Z"/><path class="cls-3" d="M124.24,40.93q.42,42.51-2.48,85c-.49,7.14-1.05,14.32-2.78,21.26-.43,1.76-1.13,3.71-2.8,4.41-2,.84-4.39-.81-5.13-2.87s-.33-4.35.1-6.51A16.89,16.89,0,1,0,131,167.93c4.45-6,4.46-14.08,4.28-21.55L132.78,41.19Z"/><path class="cls-2" d="M122.37,40.93q.24,28.18-.91,56.34-.57,13.83-1.51,27.64c-.29,4.42-.6,8.83-1.19,13.22a67.86,67.86,0,0,1-1.18,6.79,19.62,19.62,0,0,1-1.15,3.9q-5.36-1.73-3.47-6.13a1.9,1.9,0,0,0-2.75-2.12c-12.4,5.67-15.35,22.19-5,31.38s26.3,3.52,30.44-9.11c2.73-8.31,1.49-17.82,1.29-26.39l-.77-31.75-1.53-63.51a1.9,1.9,0,0,0-1.87-1.87l-8.54-.26c-2.41-.07-2.41,3.68,0,3.75l8.54.26-1.88-1.88,2.3,95.26c.3,12.6,3.12,35.52-15.24,36.35a15.15,15.15,0,0,1-15-11.33c-2-7.43,2.44-14.59,9.15-17.66l-2.76-2.11c-.66,3.62-1.19,7.79,1.92,10.47a5.38,5.38,0,0,0,7.33,0c3.12-3,3.29-9.32,3.83-13.28.82-5.94,1.16-11.93,1.54-17.91q2.55-40,2.16-80C126.1,38.52,122.35,38.52,122.37,40.93Z"/><path class="cls-3" d="M138.77,60.72c3.7,1.44,9.07,3.71,13,3.46s8.08-2.72,8.9-6.61S159,50,156.2,47.16c-12.82-13.1-32.77-18-50.74-14.38-5.67,1.13-11.32,3.12-15.69,6.88S82.46,49.23,83.25,55c.59,4.28,3.15,8.08,6.34,11a56.43,56.43,0,0,0,10.78,7.13l35.91,20a32.22,32.22,0,0,1,7.57,5.2,10.93,10.93,0,0,1,3.46,8.23c-.38,4.78-4.78,8.16-9,10.38a58.8,58.8,0,0,1-31.9,6.54,54.85,54.85,0,0,1-30.14-12.16c-3.21-2.65-6.26-6-6.74-10.13C68.76,94.72,74.69,89.14,81,87.9s12.72.69,18.84,2.6c1.9-3.27,1.22-7.64-1.07-10.64a15.77,15.77,0,0,0-9.64-5.49,24,24,0,0,0-23.31,9.4A25.86,25.86,0,0,0,63.31,109a26.7,26.7,0,0,0,12.92,13.21c5.23,2.46,11.12,3.14,16.9,3.33,15.72.53,31.38-2.27,46.66-6,4.12-1,8.28-2.08,11.93-4.21s6.82-5.45,7.83-9.56c1.21-4.91-.79-10.07-3.62-14.25-5.92-8.7-15.27-14.42-24.72-19S111.82,64,103.3,57.83a19.16,19.16,0,0,1-5.56-5.57,8.21,8.21,0,0,1-.63-7.59C99,40.94,103.8,40,108,39.78a130.09,130.09,0,0,1,15.92,0c4,.24,8.09.69,11.75,2.35s6.89,4.71,7.84,8.61S142.11,58.42,138.77,60.72Z"/><path class="cls-2" d="M138.27,62.53c7.15,2.8,17.79,6.68,23-1.64,5-7.93-4.16-16.1-9.91-20.33C135.8,29.07,111.65,25.69,94,34.6,86,38.66,79.4,47.46,81.71,56.85,84.2,67,94.53,72,102.85,76.59c11.88,6.6,24.35,12.66,35.81,20,3.33,2.12,6.53,4.83,6.57,9.07,0,4-2.79,6.49-6,8.49a53.1,53.1,0,0,1-18.66,6.74,54,54,0,0,1-40.78-9.26c-7-5.08-12.69-14.07-3-20,6.86-4.25,15.48-1.44,22.54.74a1.86,1.86,0,0,0,2.11-.86c4-8.45-2.15-16.32-10.44-18.56-9.2-2.47-19.53,1.19-25.61,8.4-6.49,7.7-7.82,19-3.87,28.19,4,9.34,12.63,15.26,22.48,17,12.35,2.22,25.53.74,37.81-1.3,6.73-1.12,13.44-2.54,20-4.24,4.79-1.23,9.65-2.75,13.56-5.91,8.64-7,7.3-17.49,1.23-25.76-6.51-8.88-16.32-14.52-26-19.2-6.85-3.29-13.89-6.23-20.46-10.08-3.16-1.85-6.66-3.85-9.14-6.58-4.23-4.66-2.49-10.12,3.65-11.38,7.15-1.47,15.49-1,22.69-.1,8.55,1,21.07,9,10.12,17.45-1.91,1.47.77,4.11,2.65,2.65,6.77-5.25,7-13.63.32-19.14-7.9-6.5-20.93-5.56-30.46-5.11-7,.33-16.63,2.29-15.22,11.48s14,14.51,21.23,18.07c9.85,4.83,20.28,8.8,29.05,15.55,9.52,7.33,19.94,22.3,5.77,30.8-5,3-11.35,4-17,5.32-6.6,1.47-13.25,2.75-20,3.59-11.91,1.48-26.94,3.12-37.94-2.71-12-6.33-16.66-22.3-9.34-33.9A22.28,22.28,0,0,1,83.25,75.94c7.2-.61,19.35,4.19,14.94,13.61l2.11-.86c-9.1-2.82-20.15-5.62-28,1.59-7.1,6.48-5.06,15.24,1.46,21.23,16.19,14.85,41,17.49,60.79,9.15,7.59-3.2,17.77-9.37,13.77-19.15-1.68-4.12-5.34-6.8-9-9-5.72-3.36-11.6-6.47-17.4-9.69l-18-10c-5.59-3.1-11.78-6.05-15.71-11.28-4.54-6.06-3.82-13.39,1.23-18.94,4.42-4.86,11-7,17.31-8.2a56.38,56.38,0,0,1,37.73,6c4.88,2.77,14.88,9,14.54,15.63-.53,10.3-14.59,4.79-19.72,2.79C137,58,136,61.66,138.27,62.53Z"/></svg>